<?xml version="1.0" standalone="no"?>
<!DOCTYPE svg PUBLIC "-//W3C//DTD SVG 20010904//EN"
 "http://www.w3.org/TR/2001/REC-SVG-20010904/DTD/svg10.dtd">
<svg version="1.0" xmlns="http://www.w3.org/2000/svg"
 width="300.000000pt" height="300.000000pt" viewBox="0 0 300.000000 300.000000"
 preserveAspectRatio="xMidYMid meet">
<metadata>
Created by potrace 1.11, written by Peter Selinger 2001-2013
</metadata>
<g transform="translate(0.000000,300.000000) scale(0.100000,-0.100000)"
fill="#000000" stroke="none">
<path d="M867 2943 c-4 -3 -1 -13 6 -21 8 -11 8 -13 0 -9 -8 5 -11 -38 -10
-168 2 -146 4 -175 17 -179 12 -3 12 -4 -2 -5 -14 -1 -16 -14 -14 -93 1 -51 6
-99 10 -107 6 -9 5 -12 -1 -8 -6 4 -9 -31 -9 -91 1 -61 5 -96 11 -95 6 1 11
-7 11 -18 0 -18 -2 -19 -12 -4 -9 13 -12 -26 -11 -179 1 -166 4 -196 17 -200
12 -3 12 -4 -2 -5 -14 -1 -16 -12 -15 -71 l2 -70 -412 0 -413 0 0 -50 c-1 -65
-1 -290 0 -333 l0 -34 403 1 c221 1 407 0 412 -1 6 -2 10 -49 9 -118 0 -96 2
-115 15 -118 14 -4 14 -5 0 -6 -14 -1 -16 -21 -15 -156 1 -129 3 -155 16 -159
12 -3 12 -4 -2 -5 -14 -1 -16 -14 -14 -94 1 -50 8 -103 15 -117 11 -23 11 -24
-3 -6 -15 18 -16 17 -13 -23 l2 -42 178 1 c98 1 181 -1 185 -5 3 -3 5 -53 4
-110 l-2 -105 300 0 300 0 0 530 c0 417 3 530 13 531 6 1 45 1 85 1 l72 1 1
36 c1 50 1 331 0 359 -1 21 -5 22 -86 22 l-85 0 0 555 0 555 -185 0 c-169 0
-185 2 -186 18 -1 9 -1 58 -1 108 l-1 91 -28 1 c-16 0 -31 -4 -34 -9 -4 -5
-12 -9 -18 -9 -7 0 -6 4 3 10 12 8 11 10 -6 10 -11 0 -26 -6 -33 -12 -11 -10
-13 -10 -7 0 5 8 0 12 -14 12 -13 0 -19 -4 -14 -12 5 -8 3 -8 -7 -2 -19 12
-138 14 -145 3 -3 -5 -11 -9 -17 -9 -7 0 -6 4 3 10 12 8 11 10 -5 10 -12 0
-27 -6 -34 -12 -11 -10 -13 -10 -7 0 5 8 0 12 -14 12 -13 0 -19 -4 -14 -12 5
-8 3 -8 -7 -2 -19 12 -138 14 -145 3 -3 -5 -11 -9 -17 -9 -7 0 -6 4 3 10 12 8
11 10 -6 10 -11 0 -24 -3 -27 -7z m64 -60 c13 -16 12 -17 -3 -4 -10 7 -18 15
-18 17 0 8 8 3 21 -13z m79 -39 c0 -8 -19 -13 -24 -6 -3 5 1 9 9 9 8 0 15 -2
15 -3z m34 -2 c3 -5 -1 -9 -9 -9 -8 0 -12 4 -9 9 3 4 7 8 9 8 2 0 6 -4 9 -8z
m7 -39 c13 -16 12 -17 -3 -4 -10 7 -18 15 -18 17 0 8 8 3 21 -13z m-45 -118
c-1 -8 -5 -17 -8 -21 -5 -4 -4 16 1 34 3 9 9 -1 7 -13z m85 -2 c13 -16 12 -17
-3 -4 -10 7 -18 15 -18 17 0 8 8 3 21 -13z m-108 -78 c-3 -9 -8 -14 -10 -11
-3 3 -2 9 2 15 9 16 15 13 8 -4z m108 -322 c13 -16 12 -17 -3 -4 -10 7 -18 15
-18 17 0 8 8 3 21 -13z m73 -1 c3 -5 -1 -9 -9 -9 -8 0 -12 4 -9 9 3 4 7 8 9 8
2 0 6 -4 9 -8z m7 -39 c13 -16 12 -17 -3 -4 -10 7 -18 15 -18 17 0 8 8 3 21
-13z m-77 -41 c3 -5 -1 -9 -9 -9 -8 0 -12 4 -9 9 3 4 7 8 9 8 2 0 6 -4 9 -8z
m-91 -57 c-3 -9 -8 -14 -10 -11 -3 3 -2 9 2 15 9 16 15 13 8 -4z m124 0 c0 -8
-4 -12 -9 -9 -5 3 -6 10 -3 15 9 13 12 11 12 -6z m43 -119 c0 -3 -4 -8 -10
-11 -5 -3 -10 -1 -10 4 0 6 5 11 10 11 6 0 10 -2 10 -4z m-100 -46 c0 -5 -5
-10 -11 -10 -5 0 -7 5 -4 10 3 6 8 10 11 10 2 0 4 -4 4 -10z m120 0 c0 -5 -5
-10 -11 -10 -5 0 -7 5 -4 10 3 6 8 10 11 10 2 0 4 -4 4 -10z m-269 -27 c13
-16 12 -17 -3 -4 -10 7 -18 15 -18 17 0 8 8 3 21 -13z m149 -13 c0 -5 -2 -10
-4 -10 -3 0 -8 5 -11 10 -3 6 -1 10 4 10 6 0 11 -4 11 -10z m34 2 c3 -5 -1 -9
-9 -9 -8 0 -12 4 -9 9 3 4 7 8 9 8 2 0 6 -4 9 -8z m86 -58 c0 -8 -19 -13 -24
-6 -3 5 1 9 9 9 8 0 15 -2 15 -3z m-40 -18 c0 -3 -4 -8 -10 -11 -5 -3 -10 -1
-10 4 0 6 5 11 10 11 6 0 10 -2 10 -4z m-125 -114 c-3 -3 -11 0 -18 7 -9 10
-8 11 6 5 10 -3 15 -9 12 -12z m45 -12 c0 -5 -2 -10 -4 -10 -3 0 -8 5 -11 10
-3 6 -1 10 4 10 6 0 11 -4 11 -10z m-90 -74 c0 -2 -8 -10 -17 -17 -16 -13 -17
-12 -4 4 13 16 21 21 21 13z m111 -23 c13 -16 12 -17 -3 -4 -17 13 -22 21 -14
21 2 0 10 -8 17 -17z m-10 -530 c13 -16 12 -17 -3 -4 -10 7 -18 15 -18 17 0 8
8 3 21 -13z m-160 -200 c13 -16 12 -17 -3 -4 -10 7 -18 15 -18 17 0 8 8 3 21
-13z m130 -30 c13 -16 12 -17 -3 -4 -10 7 -18 15 -18 17 0 8 8 3 21 -13z m-68
-198 c-3 -9 -8 -14 -10 -11 -3 3 -2 9 2 15 9 16 15 13 8 -4z m87 -241 c0 -8
-19 -13 -24 -6 -3 5 1 9 9 9 8 0 15 -2 15 -3z m141 -41 c13 -16 12 -17 -3 -4
-10 7 -18 15 -18 17 0 8 8 3 21 -13z"/>
</g>
</svg>
